<svg id="Calque_1" data-name="Calque 1" xmlns="http://www.w3.org/2000/svg" viewBox="0 0 24.17 24.42"><defs><style>.cls-1{fill:#fff;}</style></defs><title>picto-human-blanc</title><g id="_Groupe_" data-name="&lt;Groupe&gt;"><path id="_Tracé_transparent_" data-name="&lt;Tracé transparent&gt;" class="cls-1" d="M12.16.74A11.56,11.56,0,1,0,23.71,12.3,11.57,11.57,0,0,0,12.16.74Zm0,21.65A10.09,10.09,0,1,1,22.24,12.3,10.09,10.09,0,0,1,12.16,22.39Z"/><path id="_Tracé_transparent_2" data-name="&lt;Tracé transparent&gt;" class="cls-1" d="M16.36,8.88V5.68H8v3.2A4.2,4.2,0,0,0,10,12.49H8V14h3.28v.33a1.24,1.24,0,0,1-.47,1L8.85,17.17a2.55,2.55,0,0,0-.89,2H9.43a1.28,1.28,0,0,1,.46-1l1.92-1.92a4,4,0,0,0,.35-.38,3.88,3.88,0,0,0,.34.38l1.92,1.92a1.26,1.26,0,0,1,.47,1h1.47a2.56,2.56,0,0,0-.9-2l-1.92-1.92a1.26,1.26,0,0,1-.46-1V14h3.28V12.49H14.3A4.21,4.21,0,0,0,16.36,8.88Zm-1.47,0a2.73,2.73,0,1,1-5.46,0V7.15h5.46Z"/></g></svg>